<svg xmlns="http://www.w3.org/2000/svg" width="1100" height="1280" version="1.0">
  <path d="M930.5 1.4c-10.2 1.6-18.2 4-26.5 7.8-3.6 1.6-9.9 3.8-14 4.8-35.6 8.7-62.1 35.4-80.5 81-2.1 5.2-3.9 9.6-4 9.7 0 .1-5-.5-11-1.3-143.5-19-342.9-20.6-494.1-3.9C194 111.3 99.8 132.7 49.2 156.6c-22.7 10.7-40.3 24.9-46.1 37.3-3.9 8.5-3.7 18.3.6 27.4 6.9 14.4 26.5 29.1 55.2 41.2 4.3 1.8 16.4 10 36.5 24.9 98.7 73.1 173.4 126.6 230.1 164.9 81.6 55.2 125.5 90.3 148.4 118.9 15.9 19.8 19.5 27.3 23.2 48.8 3.4 19.8 4 57.8 3.7 242.6l-.2 174-2.1-.4c-2.7-.5-33.4 4.9-53.5 9.4-71.7 15.9-127.7 42.6-144.5 68.8-5.9 9.3-7.8 16.4-8.2 31.6-.3 7.4 0 15.3.5 17.5.9 3.8 1 3.6 1.1-3.2.1-4 .6-9.6 1.3-12.5l1.2-5.3.7 5.7c1.2 10.8 13.5 31.1 24.7 40.8 6.9 6 18.1 11.1 25.6 11.7 10.3.9 11-3.1 2.6-14.1-2.5-3.3-6.5-9.2-8.8-13-6.1-10.2-9.1-18.4-15.8-43.3-1.7-6.2-5.7-11.3-8.8-11.3-1.3 0-4.9 1.8-8.1 4.1-6.6 4.6-6.6 4.7 2.3-7.9 11.9-17 30.9-29.5 65-43.1 42.9-17.1 106.9-32.7 121.1-29.6l3.1.7-5.3 4.3c-13.5 10.9-18.2 23.9-13 35.5 3.6 8.1 10.9 12.7 26.2 16.6 12.5 3.2 24.4 4 35.6 2.4 15.5-2.2 27.1-6.5 33.3-12.4 4.8-4.5 6.4-8.1 6.4-14.7 0-7.8-4.4-15.9-13.9-25.7-4-4.1-7.3-7.9-7.3-8.5 0-.6.6-.3 1.3.6.9 1.2 6.4 2.4 21.7 4.6 46.1 6.8 80.1 15.3 111 27.8 13.1 5.3 30.6 13.1 39.5 17.6 6.2 3 7.6 3.5 6.1 1.8-5.2-5.8-29.6-19.1-49.5-27.1-43.3-17.2-113.3-34.1-128.1-30.8-1.3.3-1.5-24.1-1.5-199.2 0-185.1.1-200.3 1.8-211.1 2.9-19.6 6.5-30.3 12.7-38.1 1.7-2 2.7-4.3 2.5-5.1-1.2-3 21.5-27.7 41-44.6 28.7-24.9 56.7-45.6 115-85.1 34.6-23.4 74.4-51.4 112.9-79.3l22.9-16.6 4 2.1c15.9 8 32.2 12.1 49.7 12.2 14.8 0 23.8-1.7 37.9-7.5 5.3-2.2 13-4.9 17.1-6 22.2-6 43.7-19.2 66.1-40.6 22.5-21.6 36-42.4 44.9-69.2 6.6-19.6 8.4-32.1 8.4-57.1 0-17.4-.4-24.2-2.2-35.6-10.6-67.2-36.1-112.2-76.8-135.8C994.9 3.8 959.1-3 930.5 1.4zM578.5 98c67.7 1.4 115.3 4.1 168 9.5 21.8 2.3 54.7 6.3 55.2 6.9.1.1-1.3 6-3.1 13.1-6.2 24.1-8.6 42.4-8.6 67.1v17.2l-7.2-1.4c-33.9-6.5-95.3-12.9-160.8-16.6-30-1.7-147.7-1.7-178 0-95.4 5.4-158.5 13.8-226.5 30.2-37.2 9-69.6 21.4-83.3 31.9L129 260l-17.8-5.9C72.8 241.4 50 228 41.3 213.3c-3.9-6.8-4.4-16.3-1-23.7 11.6-25.3 58.6-45 151.7-63.5 84.6-16.8 177.2-25.9 286.5-28 20.4-.4 40.4-.8 44.5-.9 4.1-.1 29.1.3 55.5.8zM112.8 281.1c3.3.9 4.1 1.7 4.4 4l.4 2.8-5.8-4.1c-5.7-4-7.2-5.6-4.4-4.5.8.3 3.2 1.1 5.4 1.8zm425.1 335.4c4.9 2.5 10.8 10.2 13 16.8 2 6.1 2 8.3 1.8 208.1l-.2 201.9-10.4 3.5-10.4 3.5-10.8-3.4-10.9-3.4v-195c-.1-107.3-.5-199.7-.9-205.5-.8-9.3-.6-11 1.1-15 2.4-5.7 5.3-8.8 10.3-11.1 4.8-2.2 13.5-2.5 17.4-.4z" fill="#fff2d8"/>
  <path d="M521.7 661.7c-3 4.9-4.7 66.7-4.7 177.3 0 126 1.9 181.6 6 177.4 3.6-3.8 5.2-56.8 5.2-177.9 0-96.6-1.1-151.3-3.2-168-1-7.5-2.1-10.7-3.3-8.8zM542.3 1041c0 2.5.2 3.5.4 2.2.2-1.2.2-3.2 0-4.5-.2-1.2-.4-.2-.4 2.3zM753.8 1130.5c-2.6 2.6-4.3 6.7-9.6 23.2-6.4 20-18.2 34.7-38.3 47.9-5.8 3.8-11.4 7.5-12.5 8.2-1.6 1.1-1 1.2 3.9.6 11.1-1.1 24.4-7.1 39-17.5 16.3-11.6 25.5-23.9 27.6-36.7 1.7-10.7-1.8-27.2-6-28-.8-.1-2.7.9-4.1 2.3zM367.3 1208.4l-2.8 2.5 2 3.6c4.1 7.8 13.8 11 18.3 6.2 1.2-1.3 2.2-3.3 2.2-4.4 0-3.8-9.9-10.3-15.7-10.3-.7 0-2.5 1.1-4 2.4zM490.8 1259.7c.7.3 1.6.2 1.9-.1.4-.3-.2-.6-1.3-.5-1.1 0-1.4.3-.6.6zM568.8 1259.7c.6.2 1.8.2 2.5 0 .6-.3.1-.5-1.3-.5-1.4 0-1.9.2-1.2.5z" fill="#fff2d8"/>
</svg>
